<svg xmlns="http://www.w3.org/2000/svg" width="256" height="256"><path fill-opacity=".016" d="M0 128.004v128.004l128.25-.254 128.25-.254.254-127.75L257.008 0H0v128.004m.485.496c0 70.4.119 99.053.265 63.672.146-35.38.146-92.98 0-128C.604 29.153.485 58.1.485 128.5" fill="#1976D2" fill-rule="evenodd"/><path fill-opacity=".227" d="M0 107.208c0 9.483.267 11.925 1.2 10.992.66-.66 1.897-1.186 2.75-1.17 1.276.025 1.241.211-.2 1.05-2.378 1.385-2.199 3.803.5 6.741l2.25 2.45-2.207-1.148c-1.214-.631-2.663-1.93-3.22-2.885C.364 122.021.052 127.27.03 140.754L0 160.008l128.25-.254 128.25-.254.217-32.5.218-32.5-128.468.258L0 95.015v12.193M.385 107c0 6.875.16 9.688.355 6.25.196-3.437.196-9.062 0-12.5-.195-3.437-.355-.625-.355 6.25m18.957.551c-.336.876.322 2.527 1.513 3.795l2.109 2.244-3.051 1.803c-1.678.991-2.848 2.005-2.599 2.254.248.248 2.003-.601 3.898-1.887l3.447-2.339-2.33-1.757c-2.548-1.922-3.041-4.21-1.079-5.002.979-.395.972-.521-.031-.583-.705-.043-1.55.619-1.877 1.472M43 110.441c0 .793.408 1.693.907 2.001.498.309.671-.34.383-1.441-.611-2.335-1.29-2.63-1.29-.56m-9.445 3.707c-1.907 1.853-1.908 1.925-.055 3.621 1.798 1.646 1.825 1.644.547-.05-1.156-1.532-1.078-1.976.553-3.168 1.043-.763 1.673-1.591 1.398-1.84-.274-.249-1.373.398-2.443 1.437m23.524 1.435c.048 1.165.285 1.402.604.605.289-.722.253-1.585-.079-1.917-.332-.332-.568.258-.525 1.312M87.395 128.5c.001 7.7.158 10.718.348 6.706.191-4.011.189-10.311-.002-14-.192-3.688-.348-.406-.346 7.294M44.98 117.524c-1.932 2.329-.554 2.767 1.514.482.999-1.103 1.351-2.006.783-2.006-.567 0-1.601.686-2.297 1.524m-28.057 3.065c1.692 1.424 3.07 2.886 3.062 3.25-.047 2.032-2.318 3.586-6.15 4.207l-4.335.704 3.816.125c4.63.152 7.684-1.328 7.684-3.723 0-1.731-4.837-7.152-6.381-7.152-.425 0 .612 1.165 2.304 2.589m13.59-.61c-.753 1.219.801 4.226 3.156 6.103 1.219.973 1.078.51-.451-1.473-1.707-2.215-1.964-3.21-1.101-4.25.764-.92.784-1.359.064-1.359-.584 0-1.335.441-1.668.979m25.67.238c-.651.651-1.183 1.575-1.183 2.054 0 .48.729.143 1.619-.747.891-.891 1.423-1.815 1.183-2.055-.239-.24-.968.097-1.619.748M.419 141c0 10.725.147 15.113.327 9.75.179-5.363.179-14.137 0-19.5-.18-5.362-.327-.975-.327 9.75m45.449-17.755c.752.959 1.132 2.647.844 3.75-.289 1.103-.117 2.005.382 2.005 1.61 0 .961-4.712-.844-6.128-1.585-1.243-1.621-1.207-.382.373m57.714.931c-.226.728-1.097 3.462-1.936 6.074-.864 2.691-1.104 4.75-.554 4.75.534 0 1.23-.675 1.546-1.5.759-1.978 3.257-1.905 5.539.161 2.64 2.389 2.81 1.535.928-4.654-1.623-5.333-4.566-7.908-5.523-4.831m10.108 4.541c-.325 3.144-.388 5.919-.14 6.166.935.935 1.552-.784 1.711-4.765.201-5.036 1.415-5.362 2.305-.618.813 4.333 3.26 4.62 4.088.479.96-4.798 2.346-4.525 2.346.462 0 2.507.45 4.559 1 4.559.556 0 1-2.667 1-6 0-5.314-.226-6-1.981-6-1.348 0-2.173.878-2.583 2.75-1.199 5.472-1.749 5.773-2.737 1.5-.687-2.969-1.501-4.25-2.701-4.25-1.355 0-1.843 1.208-2.308 5.717m16.914-.129c-1.725 5.472-1.409 8.602.521 5.154.536-.958 1.83-1.742 2.875-1.742s2.339.784 2.875 1.742c1.93 3.448 2.246.318.521-5.154-1.193-3.787-2.288-5.588-3.396-5.588s-2.203 1.801-3.396 5.588m13.646-4.872c1.512.229 2.75.643 2.75.92s-1.35 2.466-3 4.864c-1.65 2.398-3 4.617-3 4.93 0 .314 2.025.57 4.5.57 2.639 0 4.5-.46 4.5-1.113 0-.669-1.199-.938-3-.674-1.65.242-3 .246-3 .008s1.35-2.138 3-4.221c4.035-5.095 3.835-6.029-1.25-5.85-2.984.105-3.431.274-1.5.566m8.677 1.974c-.663 1.741-.744 3.951-.211 5.81.767 2.68 1.279 3 4.797 3 3.396 0 4.072-.379 4.906-2.75a8.39 8.39 0 00.006-5.5c-.783-2.24-1.653-2.808-4.695-3.06-3.299-.275-3.858.016-4.803 2.5M166 128.927c0 7.12 1.952 8.351 2.1 1.323l.099-4.75 2.086 4.75c1.385 3.156 2.694 4.75 3.9 4.75 1.552 0 1.815-.871 1.815-6 0-3.333-.444-6-1-6-.55 0-1 2.025-1 4.5 0 5.647-1.13 5.745-3.031.261-.857-2.473-2.198-4.378-3.219-4.573-1.511-.289-1.75.494-1.75 5.739m13.5.073c0 4.133.389 6 1.25 6 .688 0 1.25-1.125 1.25-2.5 0-1.833.533-2.5 2-2.5 1.1 0 2-.45 2-1s-.9-1-2-1c-1.111 0-2-.667-2-1.5 0-.933.944-1.5 2.5-1.5 1.375 0 2.5-.45 2.5-1s-1.687-1-3.75-1h-3.75v6m10.7-4.8c-1.668 1.668-1.505 8.302.24 9.75.791.657 2.7 1.049 4.242.872 3.81-.438 5.718-4.376 4.213-8.693-.916-2.627-1.605-3.129-4.293-3.129-1.761 0-3.742.54-4.402 1.2m12.8 4.74c0 3.373.443 6.06 1 6.06.55 0 1-1.125 1-2.5s.46-2.5 1.021-2.5c.562 0 1.534 1.125 2.161 2.5.626 1.375 1.794 2.5 2.594 2.5 1.205 0 1.159-.45-.266-2.626-1.28-1.953-1.416-2.814-.528-3.363.656-.405 1.041-1.811.855-3.124-.277-1.962-1.004-2.442-4.087-2.697l-3.75-.311v6.061m11.839.058l.339 6.002h3.352c1.843 0 3.63-.45 3.97-1 .361-.583-.656-1-2.441-1-2.052 0-3.059-.494-3.059-1.5 0-.833.889-1.5 2-1.5 1.1 0 2-.45 2-1s-.9-1-2-1c-1.111 0-2-.667-2-1.5 0-.933.944-1.5 2.5-1.5 1.375 0 2.5-.45 2.5-1s-1.687-1.001-3.75-1.002l-3.75-.002.339 6.002m10.828-5.331c-1.59 1.59-.443 4.398 2.397 5.866 3.599 1.861 3.355 4.048-.423 3.779-1.453-.104-2.641.234-2.641.75 0 1.465 6.621 1.1 7.895-.435 1.581-1.905.609-3.821-2.975-5.868-3.449-1.968-2.977-4.241.689-3.321 1.35.339 2.391.156 2.391-.419 0-1.12-6.265-1.421-7.333-.352M235 124c0 .55.675 1 1.5 1 1.133 0 1.5 1.222 1.5 5s.367 5 1.5 5c1.118 0 1.5-1.182 1.5-4.64 0-3.246.526-5.039 1.75-5.968 1.534-1.165 1.164-1.332-3-1.36-2.613-.018-4.75.418-4.75.968m-184.731.693c.973.254 2.323.237 3-.037.677-.274-.119-.481-1.769-.461-1.65.02-2.204.244-1.231.498m5.731-.315c0 .207.788.995 1.75 1.75 1.586 1.243 1.621 1.208.378-.378-1.307-1.666-2.128-2.195-2.128-1.372m99.398 1.027c-1.092 2.846.056 8.07 1.849 8.41 2.366.448 4.027-3.964 2.753-7.315-1.031-2.713-3.734-3.356-4.602-1.095m36.452 1.024c-.881 1.935-.889 3.19-.032 5.071 2.263 4.966 5.902 1.6 5.015-4.638-.473-3.327-3.543-3.593-4.983-.433m13.15.071c0 1.982.439 2.562 1.75 2.31.963-.186 1.75-1.225 1.75-2.31s-.787-2.124-1.75-2.31c-1.311-.252-1.75.328-1.75 2.31m-100.361-.002c-1.059 2.76-.726 4.502.861 4.502 1.63 0 1.978-2.698.624-4.834-.675-1.064-.975-.997-1.485.332m28.501.817c-1.444 3.567-1.435 3.685.301 3.685 1.967 0 2.371-1.048 1.542-4l-.702-2.5-1.141 2.815M69.71 128c-.287 1.1-.115 2 .384 2 .498 0 .906-.9.906-2s-.173-2-.383-2c-.211 0-.619.9-.907 2m-37.577 3.501c-3.312 3.772-3.676 4.499-2.252 4.499 1.116 0 6.483-6.969 5.853-7.599-.257-.258-1.878 1.138-3.601 3.1m9.95-2.251c.23.137 1.731 1.375 3.337 2.75l2.919 2.5-1.919-2.719c-1.056-1.495-2.558-2.732-3.337-2.75-.779-.017-1.229.082-1 .219M58.7 132.2c-.969 1.689-1.557 3.277-1.305 3.528.252.252 1.199-.976 2.105-2.728 2.142-4.143 1.492-4.793-.8-.8m-42.6-.495c.729 1.212 1.54 1.989 1.803 1.726.263-.263-.333-1.255-1.324-2.205-1.722-1.649-1.744-1.628-.479.479m-2.35 4.375c-1.061.618-1.75 2.22-1.75 4.068 0 8.097 15.952 13.983 21.445 7.913 2.037-2.251 1.256-6.156-1.746-8.737l-2.121-1.824 1.711 2.715c4.576 7.262-1.648 11.932-10.616 7.965-7.853-3.474-9.563-9.673-3.358-12.173 2.041-.822 2.053-.882.185-.913-1.1-.018-2.787.425-3.75.986m9.063-.397c.721.289 1.584.253 1.916-.079.332-.332-.258-.568-1.312-.525-1.165.048-1.402.285-.604.604m22.853.444c-3.059 1.779-.807 7.778 3.752 9.995 2.045.994 2.044.98-.051-.805-5.478-4.666-5.061-8.845.957-9.599l3.176-.398-3-.13c-1.65-.071-3.825.351-4.834.937M26 136.393c0 .216.698.661 1.552.989.89.341 1.291.173.941-.393-.587-.951-2.493-1.406-2.493-.596m31 .985c0 .207.788.995 1.75 1.75 1.586 1.243 1.621 1.208.378-.378-1.307-1.666-2.128-2.195-2.128-1.372m4.906 5.234c1.412 2.934-.528 5.177-4.906 5.672-3.474.393-3.47.397.55.556 5.962.236 8.037-2.477 4.895-6.399-1.513-1.888-1.528-1.883-.539.171m-26.156.05c.688.278 1.813.278 2.5 0 .688-.277.125-.504-1.25-.504s-1.937.227-1.25.504" fill="#1976D2" fill-rule="evenodd"/><path fill-opacity=".263" d="M0 106.369v11.353l3.932-1.049c2.842-.759 4.985-.727 7.725.114 3.378 1.037 4.148.921 7.06-1.062 3.706-2.522 3.88-2.984 1.783-4.725-.825-.685-1.5-2.09-1.5-3.122 0-3.012 8.64-2.611 13.405.622 4.205 2.853 10.595 3.457 10.595 1 0-1.088 1.031-1.467 3.75-1.382 3.568.113 3.607.149.807.75-1.619.348-2.857.97-2.75 1.382a7.43 7.43 0 01.193 1.534c0 1.47 5.799 4.216 8.904 4.216 3.672 0 3.909-1.141.846-4.084l-2.25-2.163 2.227 1.147c2.763 1.422 4.694 4.722 3.276 5.598-1.804 1.115-1.056 2.451 1.747 3.125 8.087 1.944 14.703 8.141 11.193 10.483-.794.53-3.094.724-5.112.43-3.339-.486-3.859-.227-5.771 2.867l-2.102 3.401 3.021 3.021c8.75 8.75-2.996 13.921-12.828 5.648-2.287-1.924-4.073-2.473-8.045-2.473-4.748 0-5.106.171-5.106 2.443 0 4.974-8.135 7.199-15.329 4.193C15.898 148.06 11 142.66 11 140.078c0-1.944 2.98-5.078 4.829-5.078 1.542 0 1.478-.602-.364-3.413-.994-1.517-2.905-2.562-5.423-2.964-2.138-.342-5.272-1.787-6.965-3.211L0 122.822v37.186l128.25-.254 128.25-.254.192-32.5.192-32.5-128.442.258L0 95.015v11.354m.382.131c.002 6.6.164 9.17.359 5.711.196-3.459.195-8.859-.003-12S.38 99.9.382 106.5m20.354 1.098C18.52 109.813 24.874 114 30.45 114c2.868 0 3.55-.379 3.55-1.974 0-1.175-1.195-2.592-2.95-3.5-2.928-1.514-9.167-2.076-10.314-.928M36 113.14c0 2.74-3.238 3.657-7.63 2.161-4.029-1.373-4.411-1.331-7.311.813-1.682 1.244-3.059 2.572-3.059 2.952 0 1.46 2.687 2.709 7.25 3.369 3.784.548 4.75.395 4.75-.751 0-3.616 5.677-4.986 10.344-2.497 1.42.758 2.399.464 4.249-1.274 2.252-2.116 2.299-2.375.751-4.086-1.857-2.051-9.344-2.602-9.344-.687m50 15.36c0 11.333.241 13.5 1.5 13.5s1.5-2.167 1.5-13.5-.241-13.5-1.5-13.5-1.5 2.167-1.5 13.5m-39.48-9.891c-2.194 3.35-.542 5.394 4.352 5.383 2.874-.006 3.865-.519 4.769-2.468 1.355-2.922.449-3.942-4.304-4.841-2.633-.498-3.44-.175-4.817 1.926m-41.185-.889c-5.4.989-2.852 7.446 3.714 9.413 5.384 1.613 9.451.278 9.451-3.101 0-3.717-7.556-7.339-13.165-6.312m27.77 2.653c-2.377 2.865 1.653 6.928 8.063 8.131 2.486.466 3.814.223 4.716-.864 1.877-2.262-.1-5.109-4.875-7.02-4.943-1.978-6.429-2.024-7.904-.247m24.075 2.877c.217 1.525 1.799 2.984 4.911 4.53 4.817 2.391 8.228 2.117 7.701-.621-.452-2.346-6.648-6.159-10.009-6.159-2.458 0-2.871.357-2.603 2.25m45.92.986c-3.41 8.97-3.773 14.773-.658 10.512 1.638-2.239 4.478-2.239 6.116 0 2.4 3.282 2.818.223.823-6.015-2.181-6.817-4.71-8.628-6.281-4.497m10.525.889c-1.161 5.803-.752 10.875.875 10.875 1.082 0 1.528-1.184 1.602-4.25l.102-4.25 1.055 3.293c1.169 3.648 3.968 4.073 4.577.696.739-4.102 2.164-3.842 2.164.394 0 2.983.38 4.157 1.25 3.867.688-.229 1.213-1.167 1.167-2.083a592.74 592.74 0 01-.25-6.737c-.153-4.645-.355-5.042-2.417-4.75-1.531.218-2.357 1.119-2.585 2.82-.549 4.103-1.868 4.396-2.585.575-.885-4.718-4.044-5.005-4.955-.45m16.929 2.625c-.996 3.162-2.027 6.313-2.29 7-.263.688.197 1.25 1.022 1.25s1.759-.675 2.076-1.5c.316-.825 1.503-1.5 2.638-1.5s2.322.675 2.638 1.5c.317.825 1.251 1.5 2.076 1.5.939 0 1.279-.575.91-1.537-.324-.845-1.304-3.995-2.178-7-2.187-7.525-4.461-7.43-6.892.287m11.113-5.083c-1.445 1.444-.524 2.333 2.417 2.333h3.084l-3.183 4.02c-3.671 4.633-3.367 6.98.902 6.98 6.013 0 8.535-2.625 3.062-3.187l-3.051-.313 2.551-3.444c3.776-5.098 3.42-7.056-1.282-7.056-2.109 0-4.134.3-4.5.667m11.988 1.162c-2.237 2.471-2.138 8.424.174 10.516 4.093 3.705 9.171.649 9.171-5.519 0-5.952-5.715-9.008-9.345-4.997m12.056-1.079c-.225.412-.364 3.413-.309 6.667.118 7.133 2.311 9.017 2.787 2.396l.311-4.313 2.27 4.25c3.525 6.598 5.23 5.674 5.23-2.833 0-5.22-.329-6.975-1.25-6.672-.687.226-1.475 2.176-1.75 4.333l-.5 3.922-1.67-4.25c-1.504-3.829-4.01-5.542-5.119-3.5M179 128.943c0 5.606.308 7.057 1.5 7.057 1 0 1.5-1 1.5-3 0-2.333.444-3 2-3 1.1 0 2-.45 2-1s-.9-1-2-1c-3.07 0-2.406-2.82.75-3.184 4.265-.49 3.242-2.28-1.5-2.623l-4.25-.308v7.058m12.313-6.157c-2.196 1.396-3.343 6.005-2.226 8.944 1.791 4.708 5.524 5.659 8.913 2.27 5.16-5.16-.715-15.012-6.687-11.214M202 129c0 5.556.31 7 1.5 7 .933 0 1.5-.944 1.5-2.5 0-1.375.46-2.5 1.021-2.5.562 0 1.534 1.125 2.161 2.5.626 1.375 1.772 2.5 2.546 2.5 1.334 0 1.244-1.177-.433-5.649-.237-.632.049-1.446.637-1.809 3.222-1.991-.606-6.542-5.503-6.542H202v7m12.203-.31l.297 6.81h3.917c2.244 0 4.094-.534 4.333-1.25.273-.82-.644-1.25-2.667-1.25-2.074 0-3.083-.491-3.083-1.5 0-.933.944-1.5 2.5-1.5 1.375 0 2.5-.45 2.5-1s-1.125-1-2.5-1c-1.556 0-2.5-.567-2.5-1.5 0-1.009 1.009-1.5 3.083-1.5 4.727 0 3.024-2.444-1.958-2.81l-4.219-.31.297 6.81m11.428-4.835c-1.929 2.132-1.28 4.804 1.371 5.646 1 .317 2.399 1.278 3.11 2.134 1.134 1.366.878 1.516-2.075 1.212-2.026-.209-3.53.136-3.774.866-.584 1.748 4.454 2.737 7.311 1.435 3.394-1.546 3.125-4.843-.568-6.945-3.633-2.067-3.834-3.203-.565-3.203 2.919 0 4.19-1.544 1.971-2.395-2.787-1.07-5.061-.651-6.781 1.25M235 123.5c0 .825.675 1.5 1.5 1.5 1.152 0 1.5 1.278 1.5 5.5 0 4.222.348 5.5 1.5 5.5 1.152 0 1.5-1.278 1.5-5.5 0-4.222.348-5.5 1.5-5.5.825 0 1.5-.675 1.5-1.5 0-1.111-1.167-1.5-4.5-1.5s-4.5.389-4.5 1.5M.417 141.5c.001 10.45.149 14.589.329 9.198.18-5.391.179-13.941-.002-19-.181-5.059-.328-.648-.327 9.802M21 125.443c0 .794-.939 2.101-2.086 2.905-3.044 2.132-1.068 5.113 4.301 6.488 4.218 1.081 4.346 1.037 8.215-2.813l3.929-3.912-2.429-2.022c-3-2.497-11.93-2.981-11.93-.646m135.176-.219c-2.772 2.772-.393 10.031 2.5 7.63.728-.604 1.324-2.339 1.324-3.854 0-3.399-2.113-5.487-3.824-3.776m37.074-.506c-1.812.65-1.614 7.928.235 8.638 1.652.634 3.515-2.105 3.515-5.168 0-2.284-1.972-4.109-3.75-3.47M49 126.443c0 .794-.895 2.07-1.989 2.837-1.971 1.38-1.969 1.411.25 3.422 1.232 1.116 3.668 2.297 5.414 2.624 2.846.532 3.394.223 5.291-2.992 1.995-3.382 2.019-3.693.42-5.46-2.108-2.329-9.386-2.663-9.386-.431m156 .057c0 .825.675 1.5 1.5 1.5s1.5-.675 1.5-1.5-.675-1.5-1.5-1.5-1.5.675-1.5 1.5M104.71 128c-.327 1.25-.03 2 .79 2 .82 0 1.117-.75.79-2-.288-1.1-.643-2-.79-2-.147 0-.502.9-.79 2m28.29.5c0 .825.45 1.5 1 1.5s1-.675 1-1.5-.45-1.5-1-1.5-1 .675-1 1.5m-99.529 4.529c-3.747 3.838-3.789 3.963-1.994 5.946 2.369 2.617 13.135 3.063 12.153.502-.322-.837.233-2.34 1.232-3.339 1.68-1.68 1.695-1.967.205-3.807-.886-1.094-2.997-2.267-4.69-2.606-2.652-.53-3.609-.072-6.906 3.304m-17.79 4.433c-3.154 3.154-1.201 7.218 5.003 10.413 6.171 3.178 13.79-.344 11.52-5.326-2.414-5.299-13.04-8.571-16.523-5.087M47.2 137.2c-1.997 1.997-1.363 4.485 1.829 7.171C54.512 148.984 62 148.8 62 144.052c0-4.795-11.523-10.129-14.8-6.852" fill="#1976D2" fill-rule="evenodd"/><path fill-opacity=".643" d="M0 106.543c0 11.087.074 11.488 1.934 10.492 2.373-1.269 8.122-1.344 11.272-.147 1.809.688 2.977.378 5.172-1.372 2.782-2.218 2.803-2.311 1.11-4.894-1.392-2.125-1.486-2.92-.484-4.127 1.93-2.326 6.934-1.768 13.496 1.505 6.605 3.294 9.018 3.697 9.808 1.639 1.29-3.361 9.622-1.933 14.287 2.45 2.567 2.412 3.18 4.911 1.205 4.911-2.048 0 .426 1.569 5.299 3.36 5.347 1.965 9.238 5.67 8.719 8.301-.293 1.484-1.303 1.839-5.233 1.84-4.494.001-4.987.248-6.382 3.192-1.467 3.099-1.419 3.297 1.643 6.784 3.58 4.078 3.87 5.664 1.473 8.061-2.533 2.533-9.541 1.396-14.966-2.428-5.25-3.701-12.353-4.448-12.353-1.299 0 3.66-3.71 6.189-9.079 6.189-12.01 0-19.988-9.326-13.288-15.535 3.238-3.002 2.29-4.573-3.871-6.416-2.344-.701-5.5-2.155-7.012-3.23L0 123.864v36.144l128.25-.254 128.25-.254.182-32.5.183-32.5-128.433.258L0 95.015v11.528m.382-.043c.002 6.6.164 9.17.359 5.711.196-3.459.195-8.859-.003-12S.38 99.9.382 106.5m21.056 1.601c-1.23 1.99 3.153 5.099 7.95 5.639 3.824.431 4.612.239 4.612-1.125 0-3.567-10.758-7.434-12.562-4.514m23.962 2.061c-1.499 2.426 6.691 6.784 10.21 5.434 1.379-.529 1.416-.86.253-2.263-1.335-1.61-6.848-4.333-8.772-4.333-.535 0-1.296.523-1.691 1.162m-9.705 4.38c-1.94 2.665-1.915 2.691 3.673 3.923 1.991.439 3.442.112 4.75-1.071 2.584-2.339 2.382-3.024-1.267-4.296-4.376-1.525-5.101-1.379-7.156 1.444m-14.567 2.155c-4.099 3.208-2.764 5.303 3.379 5.303 3.449 0 4.577-.48 5.909-2.513 1.773-2.705 1.974-2.507-5-4.922-.597-.206-2.526.753-4.288 2.132m65.511-2.003c-.351.352-.639 6.864-.639 14.473 0 11.629.239 13.833 1.5 13.833 1.262 0 1.5-2.216 1.5-13.941 0-12.696-.569-16.157-2.361-14.365m-39.946 4.092c-2.118 2.341-.801 3.856 3.807 4.376 2.34.264 3.279-.19 4.268-2.061 1.52-2.875 1.611-2.759-2.799-3.582-2.773-.518-3.907-.245-5.276 1.267M3.75 118.57C.504 121.873 6.146 127 13.028 127c5.932 0 7.267-2.159 3.601-5.825-2.488-2.488-11.252-4.261-12.879-2.605m28.721 2.477c-.51.825.336 2.285 2.385 4.116 3.913 3.496 11.144 4.14 11.144.992 0-1.015-.882-2.643-1.959-3.618-2.488-2.251-10.465-3.278-11.57-1.49m24.983 1.027c-1.741 2.818 8.268 8.452 11.484 6.464 1.724-1.065-.483-4.094-4.305-5.908-3.989-1.893-6.244-2.068-7.179-.556m44.1 5.676c-.996 3.162-2.027 6.313-2.29 7-.289.756.355 1.25 1.629 1.25 1.206 0 2.107-.641 2.107-1.5 0-.841.892-1.5 2.031-1.5 1.118 0 2.291.675 2.607 1.5.317.825 1.476 1.5 2.576 1.5 1.188 0 1.806-.507 1.522-1.25-.263-.687-1.294-3.838-2.29-7-1.461-4.639-2.224-5.75-3.946-5.75s-2.485 1.111-3.946 5.75m12.155-5.126c-.39.39-.709 3.559-.709 7.043 0 4.963.325 6.333 1.5 6.333 1.053 0 1.524-1.118 1.579-3.75.078-3.693.094-3.708 1.083-1 1.262 3.454 4.782 3.81 4.956.5.092-1.748.261-1.584.758.738.365 1.707 1.386 3.131 2.382 3.323 1.419.273 1.742-.397 1.742-3.613 0-7.237-1.016-10.198-3.5-10.198-1.716 0-2.43.771-3.008 3.25l-.758 3.25-.624-3c-.605-2.914-3.71-4.567-5.401-2.876m16.401 5.515c-1.16 3.437-2.11 6.612-2.11 7.055 0 1.434 3.045.853 3.638-.694.317-.825 1.38-1.5 2.362-1.5.982 0 2.045.675 2.362 1.5.8 2.086 3.655 1.886 3.56-.25-.042-.963-.866-4-1.831-6.75-1.246-3.552-2.35-5.088-3.812-5.305-1.717-.255-2.408.731-4.169 5.944m10.89-4.705c0 .788 1.148 1.576 2.551 1.75l2.552.316-2.552 3.444c-1.403 1.895-2.551 4.282-2.551 5.305 0 1.595.676 1.817 4.741 1.556 3.56-.229 4.823-.738 5.071-2.044.276-1.455-.185-1.636-2.819-1.11l-3.15.63 3.2-4.539c1.76-2.497 2.894-5.036 2.519-5.641-1.058-1.712-9.562-1.417-9.562.333m12.2-.234c-1.751 1.751-1.5 9.358.371 11.229 2.333 2.332 7.024 1.988 8.872-.652 3.513-5.014.757-11.777-4.8-11.777-1.784 0-3.783.54-4.443 1.2M165 129c0 6.333.19 7 2 7 1.577 0 2.014-.688 2.064-3.25l.064-3.25 1.617 3.25c.937 1.882 2.383 3.25 3.436 3.25 1.585 0 1.819-.899 1.819-7 0-5.556-.31-7-1.5-7-1.049 0-1.529 1.127-1.597 3.75l-.097 3.75-1.539-3.75c-1.166-2.842-2.111-3.75-3.903-3.75-2.26 0-2.364.307-2.364 7m14 0c0 5.556.31 7 1.5 7 .922 0 1.5-.937 1.5-2.43 0-1.76.621-2.519 2.25-2.75 2.929-.416 2.918-3.225-.015-3.641-2.933-.417-1.862-2.179 1.324-2.179 1.503 0 2.441-.576 2.441-1.5 0-1.111-1.167-1.5-4.5-1.5H179v7m10.557-4.777c-3.376 4.82-.76 11.777 4.428 11.777 3.952 0 6.015-2.401 6.015-7 0-2.173-.686-4.543-1.571-5.429-2.333-2.332-7.024-1.988-8.872.652M202 129c0 6.333.19 7 2 7 1.505 0 2.01-.68 2.04-2.75l.04-2.75 1.492 2.75c.821 1.512 2.153 2.75 2.96 2.75 1.713 0 1.873-1.375.465-4.005-.67-1.252-.67-2.079 0-2.493 1.385-.856 1.26-4.845-.197-6.302-.66-.66-2.91-1.2-5-1.2H202v7m12 0v7h4.5c3.333 0 4.5-.389 4.5-1.5 0-.924-.938-1.5-2.441-1.5-3.18 0-4.259-1.761-1.334-2.179 1.24-.176 2.405-1.108 2.588-2.071.249-1.308-.331-1.75-2.299-1.75-1.5 0-2.366-.43-2.014-1 .34-.55 1.716-1 3.059-1 1.503 0 2.441-.576 2.441-1.5 0-1.111-1.167-1.5-4.5-1.5H214v7m11.13-5.73c-2.001 2.001-1.208 4.778 1.864 6.527 3.883 2.209 3.84 3.545-.087 2.683-2.653-.583-3.041-.417-2.736 1.17.544 2.826 7.598 2.584 9.53-.327 1.294-1.948 1.245-2.368-.465-4-1.052-1.003-2.772-2.337-3.824-2.966-1.619-.967-1.191-1.146 2.789-1.166l4.7-.024.3 5.157c.23 3.972.701 5.234 2.049 5.49 1.484.282 1.75-.453 1.75-4.834 0-4.326.326-5.252 2-5.69 1.1-.288 2-1.137 2-1.887 0-1.752-18.131-1.872-19.87-.133M.415 142c0 10.175.149 14.338.33 9.25.182-5.088.182-13.413 0-18.5-.181-5.088-.33-.925-.33 9.25m20.767-15.5c-.627 1.375-1.824 2.5-2.661 2.5-4.103 0 .143 4.598 5.004 5.42 3.655.617 4.28.377 7.408-2.851 3.339-3.445 3.375-3.571 1.587-5.547-1.281-1.416-3.085-2.022-6.014-2.022-3.494 0-4.373.413-5.324 2.5m27.818.45c0 1.073-.64 2.31-1.422 2.75-2.111 1.188.135 3.678 4.422 4.904 3.346.958 3.594.848 5.641-2.493l2.141-3.495-2.299-1.808c-3.217-2.53-8.483-2.442-8.483.142M156 129c0 4.613 2.541 5.677 3.589 1.502.793-3.162-.082-5.502-2.058-5.502-1.12 0-1.531 1.075-1.531 4m36.39-2.573c-.968 2.522.057 6.043 1.86 6.386 1.435.274 1.75-.4 1.75-3.74 0-2.991-.407-4.073-1.531-4.073-.843 0-1.778.642-2.079 1.427m13.61.073c0 .825.45 1.5 1 1.5s1-.675 1-1.5-.45-1.5-1-1.5-1 .675-1 1.5m-100.921 2.083c.048 1.165.285 1.402.604.605.289-.722.253-1.585-.079-1.917-.332-.332-.568.258-.525 1.312M133 129c0 .55.477 1 1.059 1s.781-.45.441-1-.816-1-1.059-1-.441.45-.441 1m-99.165 4.208c-2.959 3.737-3.006 3.946-1.297 5.834 2.358 2.606 10.462 2.828 10.462.287 0-.919.745-2.494 1.655-3.5 1.541-1.703 1.537-1.959-.06-3.724-.944-1.043-3.06-2.093-4.703-2.334-2.52-.37-3.467.168-6.057 3.437m-16.446 3.772c-8.537 3.449 3.245 14.391 11.937 11.086 5.133-1.951 2.945-7.801-4.004-10.705-3.679-1.537-4.924-1.597-7.933-.381m29.052 1.115c-2.561 4.144 9.723 11.699 13.971 8.593 3.958-2.894-2.885-9.688-9.757-9.688-1.945 0-3.842.493-4.214 1.095" fill="#1976D2" fill-rule="evenodd"/></svg>